<mxfile host="app.diagrams.net" modified="2022-03-01T14:37:51.585Z" agent="5.0 (Macintosh; Intel Mac OS X 10_15_7) AppleWebKit/537.36 (KHTML, like Gecko) Chrome/98.0.4758.109 Safari/537.36" etag="787kFtRR2YHLRuGlu_yA" version="16.6.4" type="github">
  <diagram id="DggQ3FWK7OCu6fC7piYB" name="Page-1">
    <mxGraphModel dx="1351" dy="679" grid="1" gridSize="10" guides="1" tooltips="1" connect="1" arrows="1" fold="1" page="1" pageScale="1" pageWidth="827" pageHeight="1169" math="0" shadow="0">
      <root>
        <mxCell id="0" />
        <mxCell id="1" parent="0" />
        <mxCell id="5ibIIpWJVtsaMek6VoEo-3" value="" style="edgeStyle=orthogonalEdgeStyle;rounded=0;orthogonalLoop=1;jettySize=auto;html=1;" edge="1" parent="1" source="5ibIIpWJVtsaMek6VoEo-1" target="5ibIIpWJVtsaMek6VoEo-2">
          <mxGeometry relative="1" as="geometry" />
        </mxCell>
        <mxCell id="5ibIIpWJVtsaMek6VoEo-42" value="" style="edgeStyle=orthogonalEdgeStyle;rounded=0;orthogonalLoop=1;jettySize=auto;html=1;" edge="1" parent="1" source="5ibIIpWJVtsaMek6VoEo-1" target="5ibIIpWJVtsaMek6VoEo-41">
          <mxGeometry relative="1" as="geometry" />
        </mxCell>
        <mxCell id="5ibIIpWJVtsaMek6VoEo-1" value="Indtast Tekst" style="shape=step;perimeter=stepPerimeter;whiteSpace=wrap;html=1;fixedSize=1;" vertex="1" parent="1">
          <mxGeometry x="332" y="80" width="120" height="50" as="geometry" />
        </mxCell>
        <mxCell id="5ibIIpWJVtsaMek6VoEo-10" value="" style="edgeStyle=orthogonalEdgeStyle;rounded=0;orthogonalLoop=1;jettySize=auto;html=1;entryX=0.5;entryY=0;entryDx=0;entryDy=0;" edge="1" parent="1" target="5ibIIpWJVtsaMek6VoEo-11">
          <mxGeometry relative="1" as="geometry">
            <mxPoint x="200.00000000000023" y="226" as="sourcePoint" />
            <mxPoint x="118" y="280" as="targetPoint" />
          </mxGeometry>
        </mxCell>
        <mxCell id="5ibIIpWJVtsaMek6VoEo-2" value="" style="whiteSpace=wrap;html=1;" vertex="1" parent="1">
          <mxGeometry x="162" y="206" width="76" height="20" as="geometry" />
        </mxCell>
        <mxCell id="5ibIIpWJVtsaMek6VoEo-5" value="" style="endArrow=none;dashed=1;html=1;dashPattern=1 3;strokeWidth=2;rounded=0;" edge="1" parent="1">
          <mxGeometry width="50" height="50" relative="1" as="geometry">
            <mxPoint x="48" y="220" as="sourcePoint" />
            <mxPoint x="368" y="220" as="targetPoint" />
          </mxGeometry>
        </mxCell>
        <mxCell id="5ibIIpWJVtsaMek6VoEo-22" style="edgeStyle=orthogonalEdgeStyle;rounded=0;orthogonalLoop=1;jettySize=auto;html=1;" edge="1" parent="1" source="5ibIIpWJVtsaMek6VoEo-11">
          <mxGeometry relative="1" as="geometry">
            <mxPoint x="199" y="360" as="targetPoint" />
          </mxGeometry>
        </mxCell>
        <mxCell id="5ibIIpWJVtsaMek6VoEo-11" value="TekstTilChar()" style="rounded=1;whiteSpace=wrap;html=1;" vertex="1" parent="1">
          <mxGeometry x="139" y="260" width="120" height="60" as="geometry" />
        </mxCell>
        <mxCell id="5ibIIpWJVtsaMek6VoEo-15" value="" style="rounded=0;whiteSpace=wrap;html=1;" vertex="1" parent="1">
          <mxGeometry x="154" y="370" width="18" height="20" as="geometry" />
        </mxCell>
        <mxCell id="5ibIIpWJVtsaMek6VoEo-16" value="" style="rounded=0;whiteSpace=wrap;html=1;" vertex="1" parent="1">
          <mxGeometry x="172" y="370" width="18" height="20" as="geometry" />
        </mxCell>
        <mxCell id="5ibIIpWJVtsaMek6VoEo-26" value="" style="edgeStyle=orthogonalEdgeStyle;rounded=0;orthogonalLoop=1;jettySize=auto;html=1;" edge="1" parent="1" source="5ibIIpWJVtsaMek6VoEo-17" target="5ibIIpWJVtsaMek6VoEo-27">
          <mxGeometry relative="1" as="geometry">
            <mxPoint x="199" y="450" as="targetPoint" />
            <Array as="points">
              <mxPoint x="199" y="430" />
              <mxPoint x="198" y="430" />
            </Array>
          </mxGeometry>
        </mxCell>
        <mxCell id="5ibIIpWJVtsaMek6VoEo-17" value="" style="rounded=0;whiteSpace=wrap;html=1;" vertex="1" parent="1">
          <mxGeometry x="190" y="370" width="18" height="20" as="geometry" />
        </mxCell>
        <mxCell id="5ibIIpWJVtsaMek6VoEo-18" value="" style="rounded=0;whiteSpace=wrap;html=1;" vertex="1" parent="1">
          <mxGeometry x="208" y="370" width="18" height="20" as="geometry" />
        </mxCell>
        <mxCell id="5ibIIpWJVtsaMek6VoEo-19" value="" style="rounded=0;whiteSpace=wrap;html=1;" vertex="1" parent="1">
          <mxGeometry x="226" y="370" width="18" height="20" as="geometry" />
        </mxCell>
        <mxCell id="5ibIIpWJVtsaMek6VoEo-21" value="" style="endArrow=none;dashed=1;html=1;rounded=0;" edge="1" parent="1">
          <mxGeometry width="50" height="50" relative="1" as="geometry">
            <mxPoint x="368" y="220" as="sourcePoint" />
            <mxPoint x="48" y="220" as="targetPoint" />
            <Array as="points">
              <mxPoint x="368" y="380" />
              <mxPoint x="48" y="380" />
            </Array>
          </mxGeometry>
        </mxCell>
        <mxCell id="5ibIIpWJVtsaMek6VoEo-39" value="" style="edgeStyle=orthogonalEdgeStyle;rounded=0;orthogonalLoop=1;jettySize=auto;html=1;" edge="1" parent="1" source="5ibIIpWJVtsaMek6VoEo-24">
          <mxGeometry relative="1" as="geometry">
            <mxPoint x="393" y="80" as="targetPoint" />
          </mxGeometry>
        </mxCell>
        <mxCell id="5ibIIpWJVtsaMek6VoEo-24" value="" style="ellipse;shape=doubleEllipse;whiteSpace=wrap;html=1;aspect=fixed;" vertex="1" parent="1">
          <mxGeometry x="368" width="50" height="50" as="geometry" />
        </mxCell>
        <mxCell id="5ibIIpWJVtsaMek6VoEo-29" value="" style="edgeStyle=orthogonalEdgeStyle;rounded=0;orthogonalLoop=1;jettySize=auto;html=1;entryX=0.871;entryY=0.03;entryDx=0;entryDy=0;entryPerimeter=0;" edge="1" parent="1" source="5ibIIpWJVtsaMek6VoEo-27" target="5ibIIpWJVtsaMek6VoEo-32">
          <mxGeometry relative="1" as="geometry">
            <mxPoint x="198" y="560" as="targetPoint" />
            <Array as="points" />
          </mxGeometry>
        </mxCell>
        <mxCell id="5ibIIpWJVtsaMek6VoEo-27" value="findCharVÃ¦rdi()" style="rounded=1;whiteSpace=wrap;html=1;" vertex="1" parent="1">
          <mxGeometry x="140" y="470" width="120" height="60" as="geometry" />
        </mxCell>
        <mxCell id="5ibIIpWJVtsaMek6VoEo-30" value="" style="endArrow=none;dashed=1;html=1;rounded=0;startArrow=none;" edge="1" parent="1">
          <mxGeometry width="50" height="50" relative="1" as="geometry">
            <mxPoint x="368" y="410" as="sourcePoint" />
            <mxPoint x="368" y="410" as="targetPoint" />
            <Array as="points">
              <mxPoint x="48" y="410" />
              <mxPoint x="48" y="580" />
              <mxPoint x="208" y="580" />
              <mxPoint x="368" y="580" />
            </Array>
          </mxGeometry>
        </mxCell>
        <mxCell id="5ibIIpWJVtsaMek6VoEo-31" value="" style="rounded=0;whiteSpace=wrap;html=1;" vertex="1" parent="1">
          <mxGeometry x="166" y="566" width="18" height="19" as="geometry" />
        </mxCell>
        <mxCell id="5ibIIpWJVtsaMek6VoEo-32" value="" style="rounded=0;whiteSpace=wrap;html=1;" vertex="1" parent="1">
          <mxGeometry x="184" y="566" width="18" height="19" as="geometry" />
        </mxCell>
        <mxCell id="5ibIIpWJVtsaMek6VoEo-38" value="" style="edgeStyle=orthogonalEdgeStyle;rounded=0;orthogonalLoop=1;jettySize=auto;html=1;" edge="1" parent="1" source="5ibIIpWJVtsaMek6VoEo-33">
          <mxGeometry relative="1" as="geometry">
            <mxPoint x="270" y="710" as="targetPoint" />
            <Array as="points">
              <mxPoint x="200" y="576" />
              <mxPoint x="200" y="710" />
            </Array>
          </mxGeometry>
        </mxCell>
        <mxCell id="5ibIIpWJVtsaMek6VoEo-33" value="" style="rounded=0;whiteSpace=wrap;html=1;" vertex="1" parent="1">
          <mxGeometry x="202" y="566" width="18" height="19" as="geometry" />
        </mxCell>
        <mxCell id="5ibIIpWJVtsaMek6VoEo-34" value="" style="rounded=0;whiteSpace=wrap;html=1;" vertex="1" parent="1">
          <mxGeometry x="220" y="566" width="18" height="19" as="geometry" />
        </mxCell>
        <mxCell id="5ibIIpWJVtsaMek6VoEo-35" value="" style="endArrow=none;dashed=1;html=1;rounded=0;" edge="1" parent="1">
          <mxGeometry width="50" height="50" relative="1" as="geometry">
            <mxPoint x="368" y="410" as="sourcePoint" />
            <mxPoint x="48" y="410" as="targetPoint" />
            <Array as="points" />
          </mxGeometry>
        </mxCell>
        <mxCell id="5ibIIpWJVtsaMek6VoEo-44" value="" style="edgeStyle=orthogonalEdgeStyle;rounded=0;orthogonalLoop=1;jettySize=auto;html=1;" edge="1" parent="1" source="5ibIIpWJVtsaMek6VoEo-41" target="5ibIIpWJVtsaMek6VoEo-43">
          <mxGeometry relative="1" as="geometry">
            <Array as="points">
              <mxPoint x="392" y="260" />
              <mxPoint x="450" y="260" />
              <mxPoint x="450" y="610" />
              <mxPoint x="439" y="610" />
            </Array>
          </mxGeometry>
        </mxCell>
        <mxCell id="5ibIIpWJVtsaMek6VoEo-41" value="Indtast shift" style="shape=step;perimeter=stepPerimeter;whiteSpace=wrap;html=1;fixedSize=1;" vertex="1" parent="1">
          <mxGeometry x="332" y="140" width="120" height="50" as="geometry" />
        </mxCell>
        <mxCell id="5ibIIpWJVtsaMek6VoEo-46" value="" style="edgeStyle=orthogonalEdgeStyle;rounded=0;orthogonalLoop=1;jettySize=auto;html=1;" edge="1" parent="1" source="5ibIIpWJVtsaMek6VoEo-43" target="5ibIIpWJVtsaMek6VoEo-45">
          <mxGeometry relative="1" as="geometry" />
        </mxCell>
        <mxCell id="5ibIIpWJVtsaMek6VoEo-43" value="" style="whiteSpace=wrap;html=1;" vertex="1" parent="1">
          <mxGeometry x="430" y="630" width="18" height="15" as="geometry" />
        </mxCell>
        <mxCell id="5ibIIpWJVtsaMek6VoEo-54" value="" style="edgeStyle=orthogonalEdgeStyle;rounded=0;orthogonalLoop=1;jettySize=auto;html=1;" edge="1" parent="1" source="5ibIIpWJVtsaMek6VoEo-45">
          <mxGeometry relative="1" as="geometry">
            <mxPoint x="450.4999999999998" y="810" as="targetPoint" />
          </mxGeometry>
        </mxCell>
        <mxCell id="5ibIIpWJVtsaMek6VoEo-45" value="plusCharVÃ¦rdierKonkatineretMedShift()" style="rounded=1;whiteSpace=wrap;html=1;" vertex="1" parent="1">
          <mxGeometry x="340" y="680" width="221" height="90" as="geometry" />
        </mxCell>
        <mxCell id="5ibIIpWJVtsaMek6VoEo-49" value="" style="endArrow=none;dashed=1;html=1;rounded=0;startArrow=none;" edge="1" parent="1" source="5ibIIpWJVtsaMek6VoEo-56">
          <mxGeometry width="50" height="50" relative="1" as="geometry">
            <mxPoint x="580" y="820" as="sourcePoint" />
            <mxPoint x="580" y="820" as="targetPoint" />
            <Array as="points">
              <mxPoint x="300" y="640" />
              <mxPoint x="580" y="640" />
            </Array>
          </mxGeometry>
        </mxCell>
        <mxCell id="5ibIIpWJVtsaMek6VoEo-52" value="" style="edgeStyle=orthogonalEdgeStyle;rounded=0;orthogonalLoop=1;jettySize=auto;html=1;" edge="1" parent="1" target="5ibIIpWJVtsaMek6VoEo-45">
          <mxGeometry relative="1" as="geometry">
            <mxPoint x="310" y="710" as="sourcePoint" />
          </mxGeometry>
        </mxCell>
        <mxCell id="5ibIIpWJVtsaMek6VoEo-56" value="" style="rounded=0;whiteSpace=wrap;html=1;" vertex="1" parent="1">
          <mxGeometry x="290" y="680" width="20" height="20" as="geometry" />
        </mxCell>
        <mxCell id="5ibIIpWJVtsaMek6VoEo-57" value="" style="endArrow=none;dashed=1;html=1;rounded=0;startArrow=none;" edge="1" parent="1" source="5ibIIpWJVtsaMek6VoEo-58" target="5ibIIpWJVtsaMek6VoEo-56">
          <mxGeometry width="50" height="50" relative="1" as="geometry">
            <mxPoint x="580" y="820" as="sourcePoint" />
            <mxPoint x="580" y="820" as="targetPoint" />
            <Array as="points" />
          </mxGeometry>
        </mxCell>
        <mxCell id="5ibIIpWJVtsaMek6VoEo-58" value="" style="rounded=0;whiteSpace=wrap;html=1;" vertex="1" parent="1">
          <mxGeometry x="290" y="700" width="20" height="20" as="geometry" />
        </mxCell>
        <mxCell id="5ibIIpWJVtsaMek6VoEo-59" value="" style="endArrow=none;dashed=1;html=1;rounded=0;startArrow=none;" edge="1" parent="1" source="5ibIIpWJVtsaMek6VoEo-61" target="5ibIIpWJVtsaMek6VoEo-58">
          <mxGeometry width="50" height="50" relative="1" as="geometry">
            <mxPoint x="580" y="820" as="sourcePoint" />
            <mxPoint x="300" y="700" as="targetPoint" />
            <Array as="points" />
          </mxGeometry>
        </mxCell>
        <mxCell id="5ibIIpWJVtsaMek6VoEo-60" value="" style="rounded=0;whiteSpace=wrap;html=1;" vertex="1" parent="1">
          <mxGeometry x="290" y="720" width="20" height="20" as="geometry" />
        </mxCell>
        <mxCell id="5ibIIpWJVtsaMek6VoEo-61" value="" style="rounded=0;whiteSpace=wrap;html=1;" vertex="1" parent="1">
          <mxGeometry x="290" y="740" width="20" height="20" as="geometry" />
        </mxCell>
        <mxCell id="5ibIIpWJVtsaMek6VoEo-62" value="" style="endArrow=none;dashed=1;html=1;rounded=0;" edge="1" parent="1" target="5ibIIpWJVtsaMek6VoEo-61">
          <mxGeometry width="50" height="50" relative="1" as="geometry">
            <mxPoint x="580" y="820" as="sourcePoint" />
            <mxPoint x="300" y="720" as="targetPoint" />
            <Array as="points">
              <mxPoint x="300" y="820" />
            </Array>
          </mxGeometry>
        </mxCell>
        <mxCell id="5ibIIpWJVtsaMek6VoEo-71" value="" style="rounded=0;whiteSpace=wrap;html=1;" vertex="1" parent="1">
          <mxGeometry x="428" y="810" width="22" height="20" as="geometry" />
        </mxCell>
        <mxCell id="5ibIIpWJVtsaMek6VoEo-79" value="" style="edgeStyle=orthogonalEdgeStyle;rounded=0;orthogonalLoop=1;jettySize=auto;html=1;" edge="1" parent="1" source="5ibIIpWJVtsaMek6VoEo-75" target="5ibIIpWJVtsaMek6VoEo-78">
          <mxGeometry relative="1" as="geometry" />
        </mxCell>
        <mxCell id="5ibIIpWJVtsaMek6VoEo-75" value="" style="rounded=0;whiteSpace=wrap;html=1;" vertex="1" parent="1">
          <mxGeometry x="450" y="810" width="22" height="20" as="geometry" />
        </mxCell>
        <mxCell id="5ibIIpWJVtsaMek6VoEo-76" value="" style="rounded=0;whiteSpace=wrap;html=1;" vertex="1" parent="1">
          <mxGeometry x="472" y="810" width="22" height="20" as="geometry" />
        </mxCell>
        <mxCell id="5ibIIpWJVtsaMek6VoEo-77" value="" style="rounded=0;whiteSpace=wrap;html=1;" vertex="1" parent="1">
          <mxGeometry x="406" y="810" width="22" height="20" as="geometry" />
        </mxCell>
        <mxCell id="5ibIIpWJVtsaMek6VoEo-83" value="" style="edgeStyle=orthogonalEdgeStyle;rounded=0;orthogonalLoop=1;jettySize=auto;html=1;" edge="1" parent="1" source="5ibIIpWJVtsaMek6VoEo-78" target="5ibIIpWJVtsaMek6VoEo-84">
          <mxGeometry relative="1" as="geometry">
            <mxPoint x="461" y="980" as="targetPoint" />
          </mxGeometry>
        </mxCell>
        <mxCell id="5ibIIpWJVtsaMek6VoEo-78" value="vÃ¦rdiTilChar()" style="rounded=1;whiteSpace=wrap;html=1;" vertex="1" parent="1">
          <mxGeometry x="401" y="860" width="120" height="60" as="geometry" />
        </mxCell>
        <mxCell id="5ibIIpWJVtsaMek6VoEo-80" value="" style="endArrow=none;dashed=1;html=1;rounded=0;" edge="1" parent="1">
          <mxGeometry width="50" height="50" relative="1" as="geometry">
            <mxPoint x="360" y="840" as="sourcePoint" />
            <mxPoint x="360" y="840" as="targetPoint" />
            <Array as="points">
              <mxPoint x="360" y="1000" />
              <mxPoint x="560" y="1000" />
              <mxPoint x="560" y="840" />
            </Array>
          </mxGeometry>
        </mxCell>
        <mxCell id="5ibIIpWJVtsaMek6VoEo-91" value="" style="edgeStyle=orthogonalEdgeStyle;rounded=0;orthogonalLoop=1;jettySize=auto;html=1;" edge="1" parent="1" source="5ibIIpWJVtsaMek6VoEo-84">
          <mxGeometry relative="1" as="geometry">
            <mxPoint x="462" y="1040" as="targetPoint" />
          </mxGeometry>
        </mxCell>
        <mxCell id="5ibIIpWJVtsaMek6VoEo-84" value="" style="rounded=0;whiteSpace=wrap;html=1;" vertex="1" parent="1">
          <mxGeometry x="452" y="990" width="19" height="20" as="geometry" />
        </mxCell>
        <mxCell id="5ibIIpWJVtsaMek6VoEo-85" value="" style="rounded=0;whiteSpace=wrap;html=1;" vertex="1" parent="1">
          <mxGeometry x="471" y="990" width="19" height="20" as="geometry" />
        </mxCell>
        <mxCell id="5ibIIpWJVtsaMek6VoEo-86" value="" style="rounded=0;whiteSpace=wrap;html=1;" vertex="1" parent="1">
          <mxGeometry x="433" y="990" width="19" height="20" as="geometry" />
        </mxCell>
        <mxCell id="5ibIIpWJVtsaMek6VoEo-88" value="" style="rounded=0;whiteSpace=wrap;html=1;" vertex="1" parent="1">
          <mxGeometry x="490" y="990" width="19" height="20" as="geometry" />
        </mxCell>
        <mxCell id="5ibIIpWJVtsaMek6VoEo-89" value="" style="rounded=0;whiteSpace=wrap;html=1;" vertex="1" parent="1">
          <mxGeometry x="418" y="990" width="19" height="20" as="geometry" />
        </mxCell>
        <mxCell id="5ibIIpWJVtsaMek6VoEo-95" value="" style="edgeStyle=orthogonalEdgeStyle;rounded=0;orthogonalLoop=1;jettySize=auto;html=1;" edge="1" parent="1" source="5ibIIpWJVtsaMek6VoEo-92" target="5ibIIpWJVtsaMek6VoEo-94">
          <mxGeometry relative="1" as="geometry" />
        </mxCell>
        <mxCell id="5ibIIpWJVtsaMek6VoEo-92" value="charTilString()" style="rounded=1;whiteSpace=wrap;html=1;" vertex="1" parent="1">
          <mxGeometry x="401.5" y="1040" width="120" height="60" as="geometry" />
        </mxCell>
        <mxCell id="5ibIIpWJVtsaMek6VoEo-93" value="" style="endArrow=none;dashed=1;html=1;rounded=0;" edge="1" parent="1">
          <mxGeometry width="50" height="50" relative="1" as="geometry">
            <mxPoint x="560" y="1120" as="sourcePoint" />
            <mxPoint x="560" y="1120" as="targetPoint" />
            <Array as="points">
              <mxPoint x="360" y="1120" />
              <mxPoint x="360" y="1020" />
              <mxPoint x="560" y="1020" />
            </Array>
          </mxGeometry>
        </mxCell>
        <mxCell id="5ibIIpWJVtsaMek6VoEo-94" value="" style="rounded=0;whiteSpace=wrap;html=1;" vertex="1" parent="1">
          <mxGeometry x="350" y="1030" width="20" height="60" as="geometry" />
        </mxCell>
      </root>
    </mxGraphModel>
  </diagram>
</mxfile>
